<svg xmlns="http://www.w3.org/2000/svg" width="43" height="44" fill="none" viewBox="0 0 43 44"><path fill="#2a343d" d="M12.539 5.41c-3.958 0-7.167 3.24-7.167 7.236v18.091c0 3.995 3.209 7.235 7.167 7.235h17.916c3.958 0 7.167-3.24 7.167-7.236V12.647c0-3.997-3.209-7.237-7.167-7.237zm0 3.618h17.916c1.98 0 3.584 1.62 3.584 3.618l.007 11.209c-1.394-1.306-2.815-2.124-4.375-2.164-.056-.002-.054 0-.111 0-2.038 0-4.302 1.581-5.823 3.562-.39-.886-.781-1.762-1.233-2.601-2.114-3.942-4.424-6.382-7.278-6.388-2.426-.005-4.508 1.997-6.285 4.74l.014-8.358c0-1.999 1.604-3.618 3.584-3.618m16.125 3.618a1.8 1.8 0 0 0-1.792 1.81c0 .998.803 1.808 1.792 1.808s1.791-.81 1.791-1.809-.802-1.809-1.791-1.809m-13.438 7.236c1.043.002 2.627 1.64 4.143 4.467.602 1.117 1.14 2.35 1.625 3.561.29.724.514 1.278.614 1.582.49 1.477 2.474 1.687 3.248.34.077-.134.217-.391.448-.735.387-.579.828-1.165 1.289-1.697 1.15-1.331 2.259-2.09 2.967-2.09.714.017 1.818.775 2.967 2.09.465.534.895 1.118 1.288 1.697.123.181.141.266.224.395v1.244c0 2-1.604 3.618-3.584 3.618H12.54c-1.98 0-3.584-1.619-3.584-3.618V29.21c.113-.322.264-.703.504-1.299.489-1.212 1.02-2.442 1.625-3.561 1.528-2.832 3.101-4.469 4.142-4.467"/></svg>