<svg xmlns="http://www.w3.org/2000/svg" width="47" height="48" fill="none" viewBox="0 0 47 48"><g clip-path="url(#a)"><path fill="#fff" fill-rule="evenodd" d="M46.458 24c0 13.255-10.4 24-23.23 24C10.4 48 0 37.255 0 24S10.4 0 23.229 0s23.229 10.745 23.229 24M24.06 17.718q-3.389 1.455-13.546 6.029-1.65.677-1.728 1.326c-.089.73.796 1.018 2.002 1.41q.246.078.508.166c1.186.398 2.781.864 3.61.883q1.13.025 2.52-.961 9.49-6.619 9.798-6.692c.144-.033.345-.076.48.049.137.124.123.36.109.424-.088.386-3.563 3.724-5.361 5.452-.56.538-.958.92-1.04 1.007-.182.196-.367.38-.546.558-1.102 1.098-1.928 1.92.046 3.265.949.645 1.708 1.18 2.465 1.712a173 173 0 0 0 2.719 1.885c.272.184.531.376.784.562.963.709 1.828 1.346 2.896 1.244.62-.059 1.262-.662 1.587-2.46.77-4.25 2.282-13.46 2.632-17.255a4.4 4.4 0 0 0-.039-.945c-.03-.187-.096-.453-.33-.65-.279-.233-.709-.282-.9-.279-.874.016-2.215.498-8.666 3.27" clip-rule="evenodd"/></g><defs><clipPath id="a"><path fill="#fff" d="M0 0h46.458v48H0z"/></clipPath></defs></svg>