<svg xmlns="http://www.w3.org/2000/svg" width="47" height="48" fill="none" viewBox="0 0 47 48"><g clip-path="url(#a)"><path fill="#fff" fill-rule="evenodd" d="M3.266 3.374C0 6.748 0 12.18 0 23.04v1.92c0 10.861 0 16.292 3.266 19.666S11.788 48 22.3 48h1.858c10.512 0 15.768 0 19.034-3.374s3.266-8.805 3.266-19.666v-1.92c0-10.861 0-16.292-3.266-19.666S34.67 0 24.158 0H22.3C11.787 0 6.53 0 3.266 3.374M7.84 14.6c.252 12.48 6.291 19.98 16.88 19.98h.6v-7.14c3.89.4 6.833 3.34 8.014 7.14h5.497c-1.51-5.68-5.478-8.82-7.956-10.02 2.478-1.48 5.962-5.08 6.794-9.96h-4.994c-1.084 3.96-4.297 7.56-7.355 7.9v-7.9h-4.995v13.84c-3.097-.8-7.007-4.68-7.181-13.84z" clip-rule="evenodd"/></g><defs><clipPath id="a"><path fill="#fff" d="M0 0h46.458v48H0z"/></clipPath></defs></svg>