<svg xmlns="http://www.w3.org/2000/svg" width="47" height="48" fill="none" viewBox="0 0 47 48"><g clip-path="url(#a)"><path fill="#fff" d="M45.995 14.4s-.454-3.31-1.851-4.762c-1.77-1.913-3.747-1.922-4.655-2.035-6.497-.487-16.251-.487-16.251-.487h-.018s-9.754 0-16.251.487c-.908.113-2.886.122-4.655 2.035C.916 11.09.472 14.4.472 14.4S0 18.29 0 22.172v3.637c0 3.882.463 7.772.463 7.772s.453 3.31 1.842 4.763c1.77 1.912 4.092 1.847 5.126 2.053 3.72.366 15.798.478 15.798.478s9.763-.019 16.26-.497c.908-.112 2.886-.122 4.655-2.034 1.397-1.453 1.851-4.763 1.851-4.763s.463-3.88.463-7.772v-3.637c0-3.881-.463-7.772-.463-7.772M18.429 30.225v-13.49l12.549 6.768z"/></g><defs><clipPath id="a"><path fill="#fff" d="M0 0h46.458v48H0z"/></clipPath></defs></svg>