<svg xmlns="http://www.w3.org/2000/svg" width="79" height="44" fill="none" viewBox="0 0 79 44"><g filter="url(#a)"><path fill="#3e3e40" d="M74.137 35.062a.5.5 0 0 0 .454-.542l-.398-4.483a.5.5 0 1 0-.996.089l.353 3.984-3.984.354a.5.5 0 0 0 .089.996zM4.102.49 4 .98c14.572 3.042 25.698 6.254 36.332 11.339s20.801 12.052 33.44 22.628l.32-.383.322-.383C61.739 23.574 51.5 16.55 40.764 11.417 30.025 6.283 18.813 3.05 4.203 0z"/></g><defs><filter id="a" width="78.593" height="43.462" x="0" y="0" color-interpolation-filters="sRGB" filterUnits="userSpaceOnUse"><feFlood flood-opacity="0" result="BackgroundImageFix"/><feColorMatrix in="SourceAlpha" result="hardAlpha" values="0 0 0 0 0 0 0 0 0 0 0 0 0 0 0 0 0 0 127 0"/><feOffset dy="4"/><feGaussianBlur stdDeviation="2"/><feComposite in2="hardAlpha" operator="out"/><feColorMatrix values="0 0 0 0 0 0 0 0 0 0 0 0 0 0 0 0 0 0 0.25 0"/><feBlend in2="BackgroundImageFix" result="effect1_dropShadow_106_219"/><feBlend in="SourceGraphic" in2="effect1_dropShadow_106_219" result="shape"/></filter></defs></svg>