<svg xmlns="http://www.w3.org/2000/svg" width="43" height="43" fill="none" viewBox="0 0 43 43"><path fill="#fff" d="M14.333 19.709a1.792 1.792 0 1 0 0 3.584 1.792 1.792 0 0 0 0-3.584m7.167 0a1.792 1.792 0 1 0 0 3.584 1.792 1.792 0 0 0 0-3.584m7.166 0a1.792 1.792 0 1 0 0 3.583 1.792 1.792 0 0 0 0-3.584M21.5 3.584A17.916 17.916 0 0 0 3.583 21.5a17.72 17.72 0 0 0 4.05 11.341l-3.584 3.584a1.79 1.79 0 0 0-.376 1.953 1.79 1.79 0 0 0 1.702 1.039H21.5a17.917 17.917 0 1 0 0-35.833m0 32.25H9.693l1.666-1.667a1.79 1.79 0 0 0 0-2.526 14.333 14.333 0 1 1 10.14 4.193"/></svg>