<svg xmlns="http://www.w3.org/2000/svg" width="34" height="34" fill="none" viewBox="0 0 34 34"><path fill="#000" d="M30.175 14.28a4.25 4.25 0 0 0-3.258-1.53h-6.46l.793-2.026a5.85 5.85 0 0 0-5.51-7.89 1.42 1.42 0 0 0-1.29.835l-4.037 9.081h-3.33A4.25 4.25 0 0 0 2.833 17v9.917a4.25 4.25 0 0 0 4.25 4.25h18.034a4.25 4.25 0 0 0 4.18-3.485l1.799-9.917a4.25 4.25 0 0 0-.921-3.485M9.917 28.333H7.083a1.417 1.417 0 0 1-1.416-1.416V17a1.417 1.417 0 0 1 1.416-1.417h2.834zm18.416-11.078-1.799 9.917a1.416 1.416 0 0 1-1.416 1.161H12.75V14.464l3.853-8.67a2.99 2.99 0 0 1 1.955 3.938l-.75 2.026a2.834 2.834 0 0 0 2.649 3.825h6.46a1.42 1.42 0 0 1 1.09.51 1.42 1.42 0 0 1 .326 1.162"/></svg>